<svg width="46" height="46" viewBox="0 0 46 46" fill="none" xmlns="http://www.w3.org/2000/svg">
<g clip-path="url(#clip0_2142_3252)">
<path d="M10.1224 39.1715H7.36719C6.87107 39.1715 6.46875 39.5739 6.46875 40.07C6.46875 40.5661 6.87107 40.9684 7.36719 40.9684H10.1224C10.6185 40.9684 11.0209 40.5661 11.0209 40.07C11.0209 39.5739 10.6185 39.1715 10.1224 39.1715ZM13.9788 39.4348C13.8099 39.2669 13.5817 39.1724 13.3436 39.1715C13.1055 39.1721 12.8772 39.2667 12.7085 39.4348C12.5414 39.6019 12.4452 39.8337 12.4452 40.07C12.4452 40.3063 12.5413 40.5381 12.7085 40.7051C12.8772 40.8731 13.1055 40.9678 13.3436 40.9684C13.5799 40.9684 13.8117 40.8723 13.9788 40.7051C14.1459 40.5381 14.242 40.3063 14.242 40.07C14.242 39.8337 14.146 39.6019 13.9788 39.4348ZM17.4378 16.6208C17.269 16.4527 17.0407 16.3581 16.8026 16.3574C16.5663 16.3574 16.3345 16.4536 16.1675 16.6208C15.9996 16.7896 15.905 17.0178 15.9041 17.2559C15.9041 17.4922 16.0003 17.724 16.1675 17.8911C16.3364 18.0588 16.5645 18.1534 16.8026 18.1543C17.0399 18.1543 17.2707 18.0583 17.4378 17.8911C17.6063 17.7225 17.7012 17.4942 17.7018 17.2559C17.7018 17.0196 17.6058 16.7878 17.4378 16.6208ZM24.4958 16.6208C24.3288 16.4536 24.097 16.3574 23.8607 16.3574C23.6244 16.3574 23.3926 16.4536 23.2255 16.6208C23.0576 16.7896 22.963 17.0178 22.9623 17.2559C22.9623 17.4922 23.0583 17.724 23.2255 17.8911C23.3926 18.0583 23.6244 18.1543 23.8607 18.1543C24.097 18.1543 24.3288 18.0583 24.4958 17.8911C24.6637 17.7222 24.7584 17.494 24.7591 17.2559C24.7591 17.0196 24.663 16.7878 24.4958 16.6208Z" fill="#074C3E"/>
<path d="M41.9121 28.75H23.4941C21.2401 28.75 19.4062 30.5838 19.4062 32.8379V44.2031H1.79688V36.1576C1.79688 33.1992 3.78215 30.5603 6.62463 29.7403L13.7059 27.6976L12.6895 32.2373C12.6504 32.4117 12.6643 32.5939 12.7292 32.7604C12.7942 32.9269 12.9074 33.0703 13.0544 33.1721C13.2013 33.274 13.3752 33.3296 13.554 33.3321C13.7327 33.3345 13.9081 33.2835 14.0578 33.1857L16.8325 31.3728C17.2478 31.1014 17.3646 30.5446 17.0932 30.1292C16.8218 29.7138 16.2652 29.5971 15.8496 29.8685L14.9262 30.4719L15.7528 26.7801C17.1775 27.5351 18.7545 27.9132 20.3319 27.9132C22.0001 27.9132 23.6685 27.4909 25.1557 26.6465C27.1077 25.5411 28.5712 23.7921 29.3411 21.7535H31.0195C32.6898 21.7535 34.0486 20.3947 34.0486 18.7244V14.8727C34.0486 13.9862 33.6658 13.1875 33.0569 12.6331C32.9978 5.65701 27.3096 0 20.3252 0C13.3526 0 7.67203 5.6377 7.59359 12.5973C6.961 13.1529 6.56066 13.9667 6.56066 14.8727V18.7245C6.56066 20.3948 7.91955 21.7537 9.58983 21.7537H11.3225C11.9038 23.2919 12.875 24.6525 14.1409 25.7021L6.12671 28.0139C4.34646 28.5275 2.8166 29.5815 1.70272 31.0622C0.588836 32.5428 0 34.3048 0 36.1576V45.1016C0 45.5977 0.40232 46 0.898438 46H45.1016C45.5977 46 46 45.5977 46 45.1016V32.8379C46 30.5838 44.1662 28.75 41.9121 28.75ZM32.2519 14.8727V18.7245C32.2519 19.404 31.6992 19.9567 31.0197 19.9567H29.8242C29.9083 19.4491 29.9506 18.9355 29.9508 18.4209V13.6404H31.0197C31.6992 13.6404 32.2519 14.1932 32.2519 14.8727ZM9.58974 19.9567C8.91025 19.9567 8.35745 19.4039 8.35745 18.7244V14.8726C8.35745 14.1932 8.91025 13.6404 9.58974 13.6404H10.7135C10.7134 13.6457 10.7127 13.6509 10.7127 13.6562V18.4209C10.7127 18.9401 10.7561 19.4534 10.8393 19.9567H9.58974ZM10.7488 11.8436H9.58983C9.53467 11.8436 9.47986 11.8453 9.42533 11.8481C9.88164 6.2295 14.5957 1.79688 20.3252 1.79688C26.0557 1.79688 30.7703 6.23111 31.2252 11.8513C31.1568 11.8464 31.0883 11.8438 31.0197 11.8436H29.924C29.9146 11.8049 29.9026 11.7668 29.8881 11.7297C29.4285 6.85328 25.3147 3.02477 20.3236 3.02477C15.2937 3.02477 11.1546 6.91294 10.7488 11.8436ZM12.5124 12.6397C12.5124 8.32887 16.0164 4.82164 20.3235 4.82164C23.7352 4.82164 26.6426 7.02255 27.704 10.0802L25.5314 11.5778C24.4118 12.3497 23.101 12.7578 21.7407 12.7578H12.5038C12.5089 12.719 12.5124 12.6798 12.5124 12.6397ZM12.5096 18.4209V14.5547H21.7407C23.4668 14.5547 25.1304 14.0368 26.5514 13.0573L28.1069 11.9851C28.1249 12.201 28.1346 12.4192 28.1346 12.6397C28.1346 12.7019 28.1411 12.7639 28.1539 12.8248V18.421C28.1539 19.5882 27.8855 20.719 27.3947 21.7383H23.7708C23.464 20.7563 22.546 20.0415 21.4643 20.0415H20.3162C18.9842 20.0415 17.9004 21.1253 17.9004 22.4573C17.9004 23.7894 18.9842 24.8732 20.3162 24.8732H21.4643C22.4092 24.8732 23.2285 24.3276 23.6253 23.5352H26.1925C25.6398 24.1522 24.9904 24.6752 24.2697 25.0836C21.8439 26.4607 18.8291 26.4624 16.3956 25.0844L16.3933 25.0831C13.9977 23.7266 12.5096 21.1737 12.5096 18.4209ZM22.0831 22.4573C22.0829 22.6214 22.0176 22.7787 21.9016 22.8947C21.7856 23.0108 21.6282 23.076 21.4641 23.0762H20.316C19.9747 23.0762 19.6971 22.7986 19.6971 22.4573C19.6971 22.1159 19.9747 21.8383 20.316 21.8383H21.4641C21.6282 21.8385 21.7856 21.9037 21.9016 22.0198C22.0176 22.1358 22.0829 22.2932 22.0831 22.4573ZM44.2031 44.2031H42.0469V40.2799C42.0469 39.7838 41.6446 39.3815 41.1484 39.3815C40.6523 39.3815 40.25 39.7838 40.25 40.2799V44.2031H21.2031V32.8379C21.2031 31.5746 22.2308 30.5469 23.4941 30.5469H41.9121C43.1754 30.5469 44.2031 31.5746 44.2031 32.8379V44.2031Z" fill="#074C3E"/>
<path d="M32.7031 34.3652C31.0435 34.3652 29.6934 35.7153 29.6934 37.3749C29.6934 39.0345 31.0435 40.3847 32.7031 40.3847C34.3627 40.3847 35.7129 39.0345 35.7129 37.3749C35.7129 35.7153 34.3627 34.3652 32.7031 34.3652ZM32.7031 38.5878C32.0343 38.5878 31.4902 38.0437 31.4902 37.3749C31.4902 36.7061 32.0343 36.162 32.7031 36.162C33.3719 36.162 33.916 36.7061 33.916 37.3749C33.916 38.0437 33.3719 38.5878 32.7031 38.5878ZM45.7369 19.6856C44.3148 18.2636 42.4242 17.4805 40.4132 17.4805C38.4022 17.4805 36.5115 18.2636 35.0896 19.6856C34.7387 20.0364 34.7387 20.6053 35.0896 20.9563C35.2651 21.1316 35.4949 21.2194 35.7249 21.2194C35.9549 21.2194 36.1847 21.1316 36.3602 20.9563C37.4428 19.8736 38.8821 19.2773 40.4132 19.2773C41.9442 19.2773 43.3837 19.8736 44.4662 20.9563C44.8171 21.307 45.3858 21.307 45.7369 20.9563C46.0877 20.6054 46.0877 20.0365 45.7369 19.6856Z" fill="#074C3E"/>
<path d="M43.2108 22.2115C41.6681 20.669 39.1582 20.6692 37.6157 22.2115C37.2648 22.5624 37.2648 23.1312 37.6157 23.4822C37.9666 23.8328 38.5353 23.833 38.8863 23.4822C39.7283 22.6402 41.0983 22.6403 41.9402 23.4822C42.0235 23.5657 42.1226 23.632 42.2316 23.6771C42.3406 23.7223 42.4575 23.7455 42.5755 23.7453C42.8055 23.7453 43.0354 23.6575 43.2108 23.4822C43.5616 23.1312 43.5616 22.5624 43.2108 22.2115ZM41.0486 24.5811C40.88 24.4128 40.6516 24.3182 40.4134 24.3178C40.1763 24.3178 39.9453 24.413 39.7783 24.5811C39.6099 24.7496 39.5152 24.978 39.515 25.2163C39.515 25.4525 39.6103 25.6834 39.7783 25.8514C39.9471 26.0194 40.1753 26.114 40.4134 26.1147C40.6498 26.1147 40.8815 26.0186 41.0486 25.8514C41.2157 25.6834 41.3118 25.4525 41.3118 25.2163C41.3118 24.9791 41.2158 24.7482 41.0486 24.5811ZM41.7835 36.2005C41.6165 36.0333 41.3847 35.9373 41.1484 35.9373C40.9121 35.9373 40.6803 36.0333 40.5132 36.2005C40.3461 36.3677 40.25 36.5995 40.25 36.8357C40.25 37.072 40.346 37.3038 40.5132 37.4708C40.6803 37.638 40.9121 37.7342 41.1484 37.7342C41.3847 37.7342 41.6165 37.638 41.7835 37.4708C41.9507 37.3038 42.0469 37.072 42.0469 36.8357C42.0469 36.5995 41.9507 36.3677 41.7835 36.2005Z" fill="#074C3E"/>
</g>
<defs>
<clipPath id="clip0_2142_3252">
<rect width="46" height="46" fill="white"/>
</clipPath>
</defs>
</svg>
