<svg width="46" height="46" viewBox="0 0 46 46" fill="none" xmlns="http://www.w3.org/2000/svg">
<g clip-path="url(#clip0_2142_4234)">
<path d="M36.0333 24.5724V12.1363C36.0325 11.8195 35.9662 11.5063 35.8386 11.2163C35.8309 11.1979 35.8194 11.1826 35.811 11.1657C35.6991 10.9209 35.5452 10.6975 35.3564 10.5056L30.13 5.27697C29.9382 5.08809 29.7148 4.93423 29.4699 4.82233C29.453 4.8139 29.4377 4.8024 29.4193 4.79473C29.1286 4.66684 28.8146 4.60054 28.497 4.6H18.4V2.3C18.4 1.69 18.1577 1.10499 17.7263 0.673654C17.295 0.242321 16.71 0 16.1 0L2.3 0C1.69 0 1.10499 0.242321 0.673654 0.673654C0.242321 1.10499 0 1.69 0 2.3L0 22.2333C0 22.8433 0.242321 23.4283 0.673654 23.8597C1.10499 24.291 1.69 24.5333 2.3 24.5333H8.43333V39.1C8.43333 39.71 8.67565 40.295 9.10699 40.7263C9.53832 41.1577 10.1233 41.4 10.7333 41.4H26.4707C27.5061 42.8874 28.9014 44.0883 30.5266 44.8905C32.1517 45.6926 33.9535 46.07 35.764 45.9872C37.5744 45.9045 39.3343 45.3644 40.8795 44.4174C42.4247 43.4703 43.7047 42.1472 44.6001 40.5716C45.4955 38.9959 45.9771 37.2191 45.9999 35.4069C46.0227 33.5947 45.586 31.8063 44.7305 30.2086C43.875 28.611 42.6286 27.2561 41.1078 26.2705C39.5869 25.2849 37.8411 24.7007 36.0333 24.5724ZM33.4159 10.7333H30.6667C30.4633 10.7333 30.2683 10.6526 30.1246 10.5088C29.9808 10.365 29.9 10.17 29.9 9.96667V7.2174L33.4159 10.7333ZM1.53333 22.2333V2.3C1.53333 2.09667 1.61411 1.90166 1.75788 1.75788C1.90166 1.61411 2.09667 1.53333 2.3 1.53333H16.1C16.3033 1.53333 16.4983 1.61411 16.6421 1.75788C16.7859 1.90166 16.8667 2.09667 16.8667 2.3V22.2333C16.8667 22.4367 16.7859 22.6317 16.6421 22.7755C16.4983 22.9192 16.3033 23 16.1 23H2.3C2.09667 23 1.90166 22.9192 1.75788 22.7755C1.61411 22.6317 1.53333 22.4367 1.53333 22.2333ZM10.7333 39.8667C10.53 39.8667 10.335 39.7859 10.1912 39.6421C10.0474 39.4983 9.96667 39.3033 9.96667 39.1V24.5333H16.1C16.71 24.5333 17.295 24.291 17.7263 23.8597C18.1577 23.4283 18.4 22.8433 18.4 22.2333V6.13333H28.3667V9.96667C28.3667 10.5767 28.609 11.1617 29.0403 11.593C29.4717 12.0243 30.0567 12.2667 30.6667 12.2667H34.5V24.5724C32.7578 24.6916 31.0712 25.2355 29.5876 26.1566C28.104 27.0777 26.8685 28.3481 25.9889 29.8568C25.1094 31.3654 24.6126 33.0665 24.542 34.8113C24.4713 36.5562 24.829 38.2919 25.5837 39.8667H10.7333ZM35.2667 44.4667C30.186 44.4667 26.0667 40.3474 26.0667 35.2667C26.0667 30.186 30.186 26.0667 35.2667 26.0667C40.3474 26.0667 44.4667 30.186 44.4667 35.2667C44.4613 40.3451 40.3451 44.4613 35.2667 44.4667Z" fill="#074C3E"/>
<path d="M4.59974 12.2664H13.7997C14.2064 12.2664 14.5964 12.1049 14.884 11.8173C15.1715 11.5297 15.3331 11.1397 15.3331 10.7331V4.59974C15.3331 4.19307 15.1715 3.80306 14.884 3.51551C14.5964 3.22795 14.2064 3.06641 13.7997 3.06641H4.59974C4.19307 3.06641 3.80306 3.22795 3.51551 3.51551C3.22795 3.80306 3.06641 4.19307 3.06641 4.59974V10.7331C3.06641 11.1397 3.22795 11.5297 3.51551 11.8173C3.80306 12.1049 4.19307 12.2664 4.59974 12.2664ZM4.59974 4.59974H13.7997V10.7331H4.59974V4.59974ZM37.5664 32.1997C37.5664 32.4031 37.6472 32.5981 37.791 32.7419C37.9347 32.8856 38.1297 32.9664 38.3331 32.9664C38.5364 32.9664 38.7314 32.8856 38.8752 32.7419C39.019 32.5981 39.0997 32.4031 39.0997 32.1997C39.0986 31.3164 38.793 30.4604 38.2344 29.7761C37.6758 29.0918 36.8983 28.621 36.0331 28.4431V28.3664C36.0331 28.1631 35.9523 27.9681 35.8085 27.8243C35.6647 27.6805 35.4697 27.5997 35.2664 27.5997C35.0631 27.5997 34.8681 27.6805 34.7243 27.8243C34.5805 27.9681 34.4997 28.1631 34.4997 28.3664V28.4431C33.6332 28.619 32.8541 29.0892 32.2945 29.7738C31.7349 30.4585 31.4292 31.3155 31.4292 32.1997C31.4292 33.084 31.7349 33.941 32.2945 34.6257C32.8541 35.3103 33.6332 35.7804 34.4997 35.9564V40.4928C34.0527 40.3347 33.6655 40.0424 33.391 39.6558C33.1165 39.2692 32.9682 38.8072 32.9664 38.3331C32.9664 38.1297 32.8856 37.9347 32.7419 37.791C32.5981 37.6472 32.4031 37.5664 32.1997 37.5664C31.9964 37.5664 31.8014 37.6472 31.6576 37.791C31.5138 37.9347 31.4331 38.1297 31.4331 38.3331C31.4342 39.2164 31.7398 40.0724 32.2984 40.7567C32.857 41.441 33.6345 41.9118 34.4997 42.0897V42.1664C34.4997 42.3697 34.5805 42.5647 34.7243 42.7085C34.8681 42.8523 35.0631 42.9331 35.2664 42.9331C35.4697 42.9331 35.6647 42.8523 35.8085 42.7085C35.9523 42.5647 36.0331 42.3697 36.0331 42.1664V42.0897C36.8996 41.9138 37.6787 41.4436 38.2383 40.759C38.7979 40.0744 39.1036 39.2173 39.1036 38.3331C39.1036 37.4488 38.7979 36.5918 38.2383 35.9071C37.6787 35.2225 36.8996 34.7524 36.0331 34.5764V30.0408C36.48 30.1988 36.8671 30.491 37.1416 30.8775C37.4161 31.2639 37.5644 31.7257 37.5664 32.1997ZM32.9664 32.1997C32.9684 31.7257 33.1167 31.2639 33.3912 30.8775C33.6657 30.491 34.0528 30.1988 34.4997 30.0408V34.3587C34.0528 34.2007 33.6657 33.9085 33.3912 33.522C33.1167 33.1356 32.9684 32.6737 32.9664 32.1997ZM37.5664 38.3331C37.5644 38.8071 37.4161 39.2689 37.1416 39.6553C36.8671 40.0418 36.48 40.334 36.0331 40.492V36.1741C36.48 36.3321 36.8671 36.6244 37.1416 37.0108C37.4161 37.3973 37.5644 37.8591 37.5664 38.3331ZM5.36641 13.7997H3.83307C3.62974 13.7997 3.43474 13.8805 3.29096 14.0243C3.14718 14.1681 3.06641 14.3631 3.06641 14.5664C3.06641 14.7697 3.14718 14.9647 3.29096 15.1085C3.43474 15.2523 3.62974 15.3331 3.83307 15.3331H5.36641C5.56974 15.3331 5.76474 15.2523 5.90852 15.1085C6.0523 14.9647 6.13307 14.7697 6.13307 14.5664C6.13307 14.3631 6.0523 14.1681 5.90852 14.0243C5.76474 13.8805 5.56974 13.7997 5.36641 13.7997ZM5.36641 16.8664H3.83307C3.62974 16.8664 3.43474 16.9472 3.29096 17.091C3.14718 17.2347 3.06641 17.4297 3.06641 17.6331C3.06641 17.8364 3.14718 18.0314 3.29096 18.1752C3.43474 18.319 3.62974 18.3997 3.83307 18.3997H5.36641C5.56974 18.3997 5.76474 18.319 5.90852 18.1752C6.0523 18.0314 6.13307 17.8364 6.13307 17.6331C6.13307 17.4297 6.0523 17.2347 5.90852 17.091C5.76474 16.9472 5.56974 16.8664 5.36641 16.8664ZM5.36641 19.9331H3.83307C3.62974 19.9331 3.43474 20.0138 3.29096 20.1576C3.14718 20.3014 3.06641 20.4964 3.06641 20.6997C3.06641 20.9031 3.14718 21.0981 3.29096 21.2419C3.43474 21.3856 3.62974 21.4664 3.83307 21.4664H5.36641C5.56974 21.4664 5.76474 21.3856 5.90852 21.2419C6.0523 21.0981 6.13307 20.9031 6.13307 20.6997C6.13307 20.4964 6.0523 20.3014 5.90852 20.1576C5.76474 20.0138 5.56974 19.9331 5.36641 19.9331ZM9.96641 13.7997H8.43307C8.22974 13.7997 8.03474 13.8805 7.89096 14.0243C7.74718 14.1681 7.66641 14.3631 7.66641 14.5664C7.66641 14.7697 7.74718 14.9647 7.89096 15.1085C8.03474 15.2523 8.22974 15.3331 8.43307 15.3331H9.96641C10.1697 15.3331 10.3647 15.2523 10.5085 15.1085C10.6523 14.9647 10.7331 14.7697 10.7331 14.5664C10.7331 14.3631 10.6523 14.1681 10.5085 14.0243C10.3647 13.8805 10.1697 13.7997 9.96641 13.7997ZM9.96641 16.8664H8.43307C8.22974 16.8664 8.03474 16.9472 7.89096 17.091C7.74718 17.2347 7.66641 17.4297 7.66641 17.6331C7.66641 17.8364 7.74718 18.0314 7.89096 18.1752C8.03474 18.319 8.22974 18.3997 8.43307 18.3997H9.96641C10.1697 18.3997 10.3647 18.319 10.5085 18.1752C10.6523 18.0314 10.7331 17.8364 10.7331 17.6331C10.7331 17.4297 10.6523 17.2347 10.5085 17.091C10.3647 16.9472 10.1697 16.8664 9.96641 16.8664ZM10.7331 20.6997C10.7331 20.4964 10.6523 20.3014 10.5085 20.1576C10.3647 20.0138 10.1697 19.9331 9.96641 19.9331H8.43307C8.22974 19.9331 8.03474 20.0138 7.89096 20.1576C7.74718 20.3014 7.66641 20.4964 7.66641 20.6997C7.66641 20.9031 7.74718 21.0981 7.89096 21.2419C8.03474 21.3856 8.22974 21.4664 8.43307 21.4664H9.96641C10.1697 21.4664 10.3647 21.3856 10.5085 21.2419C10.6523 21.0981 10.7331 20.9031 10.7331 20.6997ZM14.5664 13.7997H13.0331C12.8297 13.7997 12.6347 13.8805 12.491 14.0243C12.3472 14.1681 12.2664 14.3631 12.2664 14.5664C12.2664 14.7697 12.3472 14.9647 12.491 15.1085C12.6347 15.2523 12.8297 15.3331 13.0331 15.3331H14.5664C14.7697 15.3331 14.9647 15.2523 15.1085 15.1085C15.2523 14.9647 15.3331 14.7697 15.3331 14.5664C15.3331 14.3631 15.2523 14.1681 15.1085 14.0243C14.9647 13.8805 14.7697 13.7997 14.5664 13.7997ZM14.5664 16.8664H13.0331C12.8297 16.8664 12.6347 16.9472 12.491 17.091C12.3472 17.2347 12.2664 17.4297 12.2664 17.6331C12.2664 17.8364 12.3472 18.0314 12.491 18.1752C12.6347 18.319 12.8297 18.3997 13.0331 18.3997H14.5664C14.7697 18.3997 14.9647 18.319 15.1085 18.1752C15.2523 18.0314 15.3331 17.8364 15.3331 17.6331C15.3331 17.4297 15.2523 17.2347 15.1085 17.091C14.9647 16.9472 14.7697 16.8664 14.5664 16.8664ZM14.5664 19.9331H13.0331C12.8297 19.9331 12.6347 20.0138 12.491 20.1576C12.3472 20.3014 12.2664 20.4964 12.2664 20.6997C12.2664 20.9031 12.3472 21.0981 12.491 21.2419C12.6347 21.3856 12.8297 21.4664 13.0331 21.4664H14.5664C14.7697 21.4664 14.9647 21.3856 15.1085 21.2419C15.2523 21.0981 15.3331 20.9031 15.3331 20.6997C15.3331 20.4964 15.2523 20.3014 15.1085 20.1576C14.9647 20.0138 14.7697 19.9331 14.5664 19.9331ZM21.4664 16.8664H31.4331C31.6364 16.8664 31.8314 16.7856 31.9752 16.6419C32.119 16.4981 32.1997 16.3031 32.1997 16.0997C32.1997 15.8964 32.119 15.7014 31.9752 15.5576C31.8314 15.4138 31.6364 15.3331 31.4331 15.3331H21.4664C21.2631 15.3331 21.0681 15.4138 20.9243 15.5576C20.7805 15.7014 20.6997 15.8964 20.6997 16.0997C20.6997 16.3031 20.7805 16.4981 20.9243 16.6419C21.0681 16.7856 21.2631 16.8664 21.4664 16.8664ZM21.4664 20.6997H31.4331C31.6364 20.6997 31.8314 20.619 31.9752 20.4752C32.119 20.3314 32.1997 20.1364 32.1997 19.9331C32.1997 19.7297 32.119 19.5347 31.9752 19.391C31.8314 19.2472 31.6364 19.1664 31.4331 19.1664H21.4664C21.2631 19.1664 21.0681 19.2472 20.9243 19.391C20.7805 19.5347 20.6997 19.7297 20.6997 19.9331C20.6997 20.1364 20.7805 20.3314 20.9243 20.4752C21.0681 20.619 21.2631 20.6997 21.4664 20.6997ZM21.4664 24.5331H31.4331C31.6364 24.5331 31.8314 24.4523 31.9752 24.3085C32.119 24.1647 32.1997 23.9697 32.1997 23.7664C32.1997 23.5631 32.119 23.3681 31.9752 23.2243C31.8314 23.0805 31.6364 22.9997 31.4331 22.9997H21.4664C21.2631 22.9997 21.0681 23.0805 20.9243 23.2243C20.7805 23.3681 20.6997 23.5631 20.6997 23.7664C20.6997 23.9697 20.7805 24.1647 20.9243 24.3085C21.0681 24.4523 21.2631 24.5331 21.4664 24.5331ZM23.7664 26.8331H13.0331C12.8297 26.8331 12.6347 26.9138 12.491 27.0576C12.3472 27.2014 12.2664 27.3964 12.2664 27.5997C12.2664 27.8031 12.3472 27.9981 12.491 28.1419C12.6347 28.2856 12.8297 28.3664 13.0331 28.3664H23.7664C23.9697 28.3664 24.1647 28.2856 24.3085 28.1419C24.4523 27.9981 24.5331 27.8031 24.5331 27.5997C24.5331 27.3964 24.4523 27.2014 24.3085 27.0576C24.1647 26.9138 23.9697 26.8331 23.7664 26.8331ZM22.2331 30.6664H13.0331C12.8297 30.6664 12.6347 30.7472 12.491 30.891C12.3472 31.0347 12.2664 31.2297 12.2664 31.4331C12.2664 31.6364 12.3472 31.8314 12.491 31.9752C12.6347 32.119 12.8297 32.1997 13.0331 32.1997H22.2331C22.4364 32.1997 22.6314 32.119 22.7752 31.9752C22.919 31.8314 22.9997 31.6364 22.9997 31.4331C22.9997 31.2297 22.919 31.0347 22.7752 30.891C22.6314 30.7472 22.4364 30.6664 22.2331 30.6664ZM21.4664 34.4997H13.0331C12.8297 34.4997 12.6347 34.5805 12.491 34.7243C12.3472 34.8681 12.2664 35.0631 12.2664 35.2664C12.2664 35.4697 12.3472 35.6647 12.491 35.8085C12.6347 35.9523 12.8297 36.0331 13.0331 36.0331H21.4664C21.6697 36.0331 21.8647 35.9523 22.0085 35.8085C22.1523 35.6647 22.2331 35.4697 22.2331 35.2664C22.2331 35.0631 22.1523 34.8681 22.0085 34.7243C21.8647 34.5805 21.6697 34.4997 21.4664 34.4997Z" fill="#074C3E"/>
</g>
<defs>
<clipPath id="clip0_2142_4234">
<rect width="46" height="46" fill="white"/>
</clipPath>
</defs>
</svg>
