<svg width="46" height="46" viewBox="0 0 46 46" fill="none" xmlns="http://www.w3.org/2000/svg">
<g clip-path="url(#clip0_2142_1620)">
<path d="M34.5 26.5101V28.0317H35.9375V26.5101C36.5504 26.3641 37.0964 26.016 37.4875 25.522C37.8787 25.028 38.0922 24.4168 38.0938 23.7867C38.0944 23.1975 37.9093 22.623 37.5648 22.145C37.2203 21.6669 36.7339 21.3096 36.1747 21.1238L34.7185 20.6379C34.4454 20.5475 34.2077 20.3733 34.0394 20.1399C33.8711 19.9066 33.7808 19.6261 33.7812 19.3384C33.7812 18.583 34.3958 17.9692 35.1512 17.9692H35.2863C36.0417 17.9692 36.6562 18.583 36.6562 19.3384V19.4067L38.0938 19.3384C38.0938 18.0159 37.1709 16.9104 35.9375 16.615V15.0942H34.5V16.6158C33.8871 16.7618 33.3411 17.1098 32.95 17.6038C32.5588 18.0978 32.3453 18.709 32.3438 19.3391C32.3431 19.9284 32.5282 20.5028 32.8727 20.9809C33.2172 21.4589 33.7036 21.8162 34.2628 22.0021L35.719 22.488C36.0269 22.5913 36.2881 22.8006 36.456 23.0787C36.6239 23.3567 36.6875 23.6854 36.6355 24.006C36.5835 24.3266 36.4193 24.6183 36.1722 24.8291C35.9251 25.0398 35.6111 25.1559 35.2863 25.1567H35.1512C34.788 25.1565 34.4398 25.0122 34.183 24.7555C33.9261 24.4988 33.7816 24.1506 33.7812 23.7875V23.0004H32.3438V23.7875C32.3438 25.11 33.2666 26.2147 34.5 26.5101ZM12.2188 16.8436C12.2195 17.1697 12.3065 17.4897 12.4711 17.7712C12.6356 18.0528 12.8718 18.2857 13.1555 18.4463C13.4393 18.607 13.7605 18.6896 14.0866 18.6858C14.4126 18.6821 14.7318 18.592 15.0118 18.4249L21.316 14.6428C21.9111 14.2856 22.2812 13.6322 22.2812 12.9379C22.2812 12.2436 21.9111 11.5903 21.316 11.233L15.0125 7.45098C14.7326 7.28364 14.4132 7.19345 14.0871 7.18958C13.7609 7.18572 13.4396 7.26832 13.1557 7.42899C12.8718 7.58965 12.6356 7.82264 12.471 8.10426C12.3064 8.38587 12.2194 8.70605 12.2188 9.03223V10.0629H0.71875V15.8129H12.2188V16.8436ZM2.15625 14.3754V11.5004H13.6562V9.03223C13.6562 8.73395 14.0142 8.52911 14.2722 8.68364L20.5764 12.4657C20.741 12.5642 20.8438 12.7453 20.8438 12.9379C20.8438 13.1305 20.741 13.3117 20.5764 13.4101L14.2722 17.1922C14.0163 17.3467 13.6562 17.1419 13.6562 16.8436V14.3754H2.15625Z" fill="#074C3E"/>
<path d="M33.781 35.6256C33.7802 35.2995 33.6932 34.9794 33.5286 34.6979C33.3641 34.4164 33.1279 34.1835 32.8442 34.0228C32.5604 33.8622 32.2392 33.7796 31.9131 33.7833C31.5871 33.7871 31.2679 33.8772 30.9879 34.0443L26.5935 36.6807V31.625C27.0891 31.6241 27.5761 31.4951 28.0072 31.2507C28.4384 31.0063 28.7991 30.6547 29.0545 30.2299C30.8155 31.603 32.9854 32.3471 35.2185 32.3438C40.7672 32.3438 45.281 27.83 45.281 22.2726C45.281 19.7822 44.3638 17.3916 42.6978 15.5415L39.5755 12.0721C39.9841 11.9179 40.3361 11.6431 40.5849 11.2842C40.8337 10.9253 40.9674 10.4992 40.9685 10.0625C40.9675 9.65005 40.8483 9.24652 40.6248 8.89985C40.4013 8.55318 40.083 8.27793 39.7078 8.10678L40.8686 4.04512C40.9787 3.65674 40.9974 3.24812 40.9231 2.85131C40.8488 2.45451 40.6836 2.0803 40.4405 1.75804C40.1973 1.43579 39.8828 1.17425 39.5216 0.993929C39.1604 0.813611 38.7624 0.719423 38.3587 0.71875H36.3915C35.3759 0.71875 34.504 1.30741 34.0728 2.15625H32.2213C31.4916 2.15682 30.792 2.44683 30.2759 2.96265C29.7598 3.47847 29.4694 4.17796 29.4685 4.90763C29.4674 5.26917 29.5382 5.62732 29.6766 5.96131C29.815 6.2953 30.0184 6.59849 30.2749 6.85328L31.3552 7.93356C30.8355 7.9981 30.3572 8.24991 30.0099 8.64182C29.6626 9.03373 29.4701 9.53884 29.4685 10.0625C29.4685 10.9818 30.0492 11.7631 30.8614 12.0721L27.7391 15.5415C26.0731 17.3906 25.1526 19.7923 25.156 22.2812C25.156 23.2113 25.294 24.1141 25.5391 24.9895L16.7789 20.5304C16.2556 20.269 15.6786 20.1328 15.0935 20.1327C14.5085 20.1325 13.9315 20.2685 13.408 20.5297L2.16602 26.2538C1.50526 26.6328 1.02167 27.2583 0.821199 27.9932C0.620733 28.7281 0.719738 29.5125 1.09652 30.1746C1.34821 30.6147 1.71164 30.9806 2.15008 31.2353C2.58851 31.49 3.08642 31.6244 3.59346 31.625V45.2812H26.5935V42.3818L30.9872 45.0175C31.274 45.19 31.6017 45.2812 31.9366 45.2812C32.4256 45.2807 32.8944 45.0862 33.2401 44.7404C33.5859 44.3947 33.7804 43.9259 33.781 43.4369V42.4062H45.281V36.6562H33.781V35.6256ZM30.906 4.90763C30.9063 4.55916 31.045 4.22508 31.2915 3.97874C31.5379 3.7324 31.8721 3.59394 32.2206 3.59375H33.781V5.03125H35.2185V3.32925C35.2185 2.68237 35.7446 2.15625 36.3907 2.15625H38.358C38.5394 2.15658 38.7183 2.19893 38.8806 2.27999C39.0429 2.36104 39.1842 2.4786 39.2934 2.62343C39.4027 2.76826 39.4769 2.93644 39.5103 3.11476C39.5436 3.29309 39.5352 3.47672 39.4857 3.65125L38.2703 7.90625H33.3598L31.2905 5.83697C31.0451 5.58983 30.9069 5.25593 30.906 4.90763ZM31.6247 10.7812C31.4396 10.773 31.2649 10.6936 31.1369 10.5597C31.0088 10.4259 30.9374 10.2477 30.9374 10.0625C30.9374 9.87725 31.0088 9.69914 31.1369 9.56526C31.2649 9.43137 31.4396 9.35203 31.6247 9.34375H38.8122C38.9973 9.35203 39.172 9.43137 39.3 9.56526C39.4281 9.69914 39.4995 9.87725 39.4995 10.0625C39.4995 10.2477 39.4281 10.4259 39.3 10.5597C39.172 10.6936 38.9973 10.773 38.8122 10.7812H32.0229H31.6247ZM26.5935 22.2726C26.5935 20.1379 27.3798 18.0895 28.8079 16.5032L32.6633 12.2188H37.7729L41.629 16.5032C43.0572 18.0885 43.8463 20.1475 43.8435 22.2812C43.8435 27.0372 39.9744 30.9062 35.2185 30.9062C33.073 30.9062 31.0418 30.1156 29.4555 28.686C29.4434 28.1862 29.3021 27.698 29.0454 27.2689C28.7887 26.8398 28.4254 26.4844 27.9907 26.2373L27.4193 25.9469C26.8741 24.7988 26.592 23.5436 26.5935 22.2726ZM2.34499 29.4623C1.95255 28.7752 2.1919 27.8954 2.84883 27.5188L14.0606 21.8105C14.3815 21.6503 14.7353 21.567 15.0939 21.5671C15.4525 21.5673 15.8062 21.6508 16.127 21.8112L27.3079 27.5022C27.6385 27.6918 27.8804 28.0048 27.9807 28.3725C28.0809 28.7401 28.0313 29.1326 27.8426 29.4637C27.4631 30.1271 26.6143 30.4168 25.8467 29.9798L15.0935 24.6028L4.30502 29.9985C3.65024 30.3772 2.72521 30.1278 2.34499 29.4623ZM10.781 40.8365C11.0066 40.917 11.2467 40.9688 11.4997 40.9688C12.6885 40.9688 13.656 40.0013 13.656 38.8125C13.656 37.6237 12.6885 36.6562 11.4997 36.6562C11.2467 36.6562 11.0066 36.708 10.781 36.7885V33.7812H19.406V43.8438H10.781V40.8365ZM10.781 38.8125C10.7808 38.6701 10.8229 38.5309 10.9019 38.4125C10.9809 38.2941 11.0933 38.2018 11.2248 38.1472C11.3563 38.0927 11.501 38.0784 11.6406 38.1061C11.7802 38.1338 11.9085 38.2024 12.0092 38.303C12.1098 38.4037 12.1784 38.532 12.2061 38.6716C12.2338 38.8112 12.2195 38.9559 12.165 39.0874C12.1104 39.2189 12.0181 39.3313 11.8997 39.4103C11.7813 39.4893 11.6421 39.5314 11.4997 39.5312C11.1037 39.5312 10.781 39.2092 10.781 38.8125ZM25.156 43.8438H20.8435V32.3438H9.34346V43.8438H5.03096V31.2419L15.0935 26.2107L25.156 31.2405V37.5432L24.6837 37.8264C24.0886 38.1836 23.7185 38.8369 23.7185 39.5312C23.7185 40.2256 24.0886 40.8789 24.6837 41.2361L25.156 41.5193V43.8438ZM43.8435 38.0938V40.9688H32.3435V43.4369C32.3435 43.7352 31.9855 43.9393 31.7275 43.7855L25.4233 40.0035C25.342 39.9543 25.2746 39.8851 25.2278 39.8024C25.181 39.7197 25.1562 39.6263 25.156 39.5312C25.1562 39.4362 25.181 39.3428 25.2278 39.2601C25.2746 39.1774 25.342 39.1082 25.4233 39.059L31.7275 35.277C31.7892 35.2397 31.8596 35.2196 31.9317 35.2186C32.0037 35.2176 32.0747 35.2357 32.1374 35.2712C32.2001 35.3067 32.2522 35.3582 32.2884 35.4205C32.3246 35.4827 32.3436 35.5535 32.3435 35.6256V38.0938H43.8435Z" fill="#074C3E"/>
</g>
<defs>
<clipPath id="clip0_2142_1620">
<rect width="46" height="46" fill="white"/>
</clipPath>
</defs>
</svg>
